<mxfile host="app.diagrams.net" agent="Mozilla/5.0 (Windows NT 10.0; Win64; x64) AppleWebKit/537.36 (KHTML, like Gecko) Chrome/135.0.0.0 Safari/537.36" version="26.2.14">
  <diagram name="Page-1" id="cwxhGfBFroa541XxMkX4">
    <mxGraphModel dx="983" dy="521" grid="0" gridSize="10" guides="1" tooltips="1" connect="1" arrows="1" fold="1" page="1" pageScale="1" pageWidth="1920" pageHeight="1200" math="0" shadow="0">
      <root>
        <mxCell id="0" />
        <mxCell id="1" parent="0" />
        <mxCell id="cRXDesgfxKI7EuMV64Of-180" style="edgeStyle=orthogonalEdgeStyle;rounded=0;orthogonalLoop=1;jettySize=auto;html=1;exitX=1;exitY=0;exitDx=0;exitDy=0;entryX=0;entryY=0.5;entryDx=0;entryDy=0;startArrow=ERmandOne;startFill=0;endArrow=ERmandOne;endFill=0;endSize=9;startSize=9;strokeWidth=3;" parent="1" source="cRXDesgfxKI7EuMV64Of-1" target="cRXDesgfxKI7EuMV64Of-162" edge="1">
          <mxGeometry relative="1" as="geometry" />
        </mxCell>
        <mxCell id="cRXDesgfxKI7EuMV64Of-1" value="&lt;font style=&quot;font-size: 16px;&quot;&gt;Property&lt;/font&gt;" style="shape=table;startSize=28;container=1;collapsible=1;childLayout=tableLayout;fixedRows=1;rowLines=0;fontStyle=1;align=center;resizeLast=1;html=1;fillColor=light-dark(#fff4cc, #ededed);" parent="1" vertex="1">
          <mxGeometry x="808" y="382" width="343.3030672940339" height="304.6468505859378" as="geometry" />
        </mxCell>
        <mxCell id="cRXDesgfxKI7EuMV64Of-2" value="" style="shape=tableRow;horizontal=0;startSize=0;swimlaneHead=0;swimlaneBody=0;fillColor=none;collapsible=0;dropTarget=0;points=[[0,0.5],[1,0.5]];portConstraint=eastwest;top=0;left=0;right=0;bottom=1;" parent="cRXDesgfxKI7EuMV64Of-1" vertex="1">
          <mxGeometry y="28" width="343.3030672940339" height="30" as="geometry" />
        </mxCell>
        <mxCell id="cRXDesgfxKI7EuMV64Of-3" value="PK" style="shape=partialRectangle;connectable=0;fillColor=light-dark(#ffffff, #ededed);top=0;left=0;bottom=0;right=0;fontStyle=1;overflow=hidden;whiteSpace=wrap;html=1;" parent="cRXDesgfxKI7EuMV64Of-2" vertex="1">
          <mxGeometry width="34.80559794108092" height="30" as="geometry">
            <mxRectangle width="34.80559794108092" height="30" as="alternateBounds" />
          </mxGeometry>
        </mxCell>
        <mxCell id="cRXDesgfxKI7EuMV64Of-4" value="&lt;span style=&quot;text-wrap-mode: nowrap;&quot;&gt;&lt;font style=&quot;font-size: 14px;&quot;&gt;&lt;b&gt;property_id &lt;span style=&quot;white-space: pre;&quot;&gt;&#x9;&lt;/span&gt;serial&lt;/b&gt;&lt;/font&gt;&lt;/span&gt;" style="shape=partialRectangle;connectable=0;fillColor=light-dark(#ffffff, #EDEDED);top=0;left=0;bottom=0;right=0;align=left;spacingLeft=6;fontStyle=4;overflow=hidden;whiteSpace=wrap;html=1;" parent="cRXDesgfxKI7EuMV64Of-2" vertex="1">
          <mxGeometry x="34.80559794108092" width="308.497469352953" height="30" as="geometry">
            <mxRectangle width="308.497469352953" height="30" as="alternateBounds" />
          </mxGeometry>
        </mxCell>
        <mxCell id="cRXDesgfxKI7EuMV64Of-5" value="" style="shape=tableRow;horizontal=0;startSize=0;swimlaneHead=0;swimlaneBody=0;fillColor=light-dark(#dae8fc, #ededed);collapsible=0;dropTarget=0;points=[[0,0.5],[1,0.5]];portConstraint=eastwest;top=0;left=0;right=0;bottom=0;" parent="cRXDesgfxKI7EuMV64Of-1" vertex="1">
          <mxGeometry y="58" width="343.3030672940339" height="36" as="geometry" />
        </mxCell>
        <mxCell id="cRXDesgfxKI7EuMV64Of-6" value="" style="shape=partialRectangle;connectable=0;fillColor=none;top=0;left=0;bottom=0;right=0;editable=1;overflow=hidden;whiteSpace=wrap;html=1;" parent="cRXDesgfxKI7EuMV64Of-5" vertex="1">
          <mxGeometry width="34.80559794108092" height="36" as="geometry">
            <mxRectangle width="34.80559794108092" height="36" as="alternateBounds" />
          </mxGeometry>
        </mxCell>
        <mxCell id="cRXDesgfxKI7EuMV64Of-7" value="&lt;font style=&quot;font-size: 14px;&quot;&gt;property_name character varying(25) NOT NULL&lt;/font&gt;" style="shape=partialRectangle;connectable=0;fillColor=none;top=0;left=0;bottom=0;right=0;align=left;spacingLeft=6;overflow=hidden;whiteSpace=wrap;html=1;" parent="cRXDesgfxKI7EuMV64Of-5" vertex="1">
          <mxGeometry x="34.80559794108092" width="308.497469352953" height="36" as="geometry">
            <mxRectangle width="308.497469352953" height="36" as="alternateBounds" />
          </mxGeometry>
        </mxCell>
        <mxCell id="cRXDesgfxKI7EuMV64Of-8" value="" style="shape=tableRow;horizontal=0;startSize=0;swimlaneHead=0;swimlaneBody=0;fillColor=none;collapsible=0;dropTarget=0;points=[[0,0.5],[1,0.5]];portConstraint=eastwest;top=0;left=0;right=0;bottom=0;" parent="cRXDesgfxKI7EuMV64Of-1" vertex="1">
          <mxGeometry y="94" width="343.3030672940339" height="45" as="geometry" />
        </mxCell>
        <mxCell id="cRXDesgfxKI7EuMV64Of-9" value="" style="shape=partialRectangle;connectable=0;fillColor=light-dark(#dae8fc, #ededed);top=0;left=0;bottom=0;right=0;editable=1;overflow=hidden;whiteSpace=wrap;html=1;" parent="cRXDesgfxKI7EuMV64Of-8" vertex="1">
          <mxGeometry width="34.80559794108092" height="45" as="geometry">
            <mxRectangle width="34.80559794108092" height="45" as="alternateBounds" />
          </mxGeometry>
        </mxCell>
        <mxCell id="cRXDesgfxKI7EuMV64Of-10" value="&lt;font style=&quot;font-size: 14px;&quot;&gt;property_description character varying(255) NOT NULL&lt;/font&gt;" style="shape=partialRectangle;connectable=0;fillColor=light-dark(#dae8fc, #ededed);top=0;left=0;bottom=0;right=0;align=left;spacingLeft=6;overflow=hidden;whiteSpace=wrap;html=1;" parent="cRXDesgfxKI7EuMV64Of-8" vertex="1">
          <mxGeometry x="34.80559794108092" width="308.497469352953" height="45" as="geometry">
            <mxRectangle width="308.497469352953" height="45" as="alternateBounds" />
          </mxGeometry>
        </mxCell>
        <mxCell id="cRXDesgfxKI7EuMV64Of-11" value="" style="shape=tableRow;horizontal=0;startSize=0;swimlaneHead=0;swimlaneBody=0;fillColor=none;collapsible=0;dropTarget=0;points=[[0,0.5],[1,0.5]];portConstraint=eastwest;top=0;left=0;right=0;bottom=0;" parent="cRXDesgfxKI7EuMV64Of-1" vertex="1">
          <mxGeometry y="139" width="343.3030672940339" height="42" as="geometry" />
        </mxCell>
        <mxCell id="cRXDesgfxKI7EuMV64Of-12" value="" style="shape=partialRectangle;connectable=0;fillColor=light-dark(#dae8fc, #ededed);top=0;left=0;bottom=0;right=0;editable=1;overflow=hidden;whiteSpace=wrap;html=1;" parent="cRXDesgfxKI7EuMV64Of-11" vertex="1">
          <mxGeometry width="34.80559794108092" height="42" as="geometry">
            <mxRectangle width="34.80559794108092" height="42" as="alternateBounds" />
          </mxGeometry>
        </mxCell>
        <mxCell id="cRXDesgfxKI7EuMV64Of-13" value="&lt;font style=&quot;font-size: 14px;&quot;&gt;property_type character varying(25) NOT NULL&lt;/font&gt;" style="shape=partialRectangle;connectable=0;fillColor=light-dark(#dae8fc, #ededed);top=0;left=0;bottom=0;right=0;align=left;spacingLeft=6;overflow=hidden;whiteSpace=wrap;html=1;" parent="cRXDesgfxKI7EuMV64Of-11" vertex="1">
          <mxGeometry x="34.80559794108092" width="308.497469352953" height="42" as="geometry">
            <mxRectangle width="308.497469352953" height="42" as="alternateBounds" />
          </mxGeometry>
        </mxCell>
        <mxCell id="cRXDesgfxKI7EuMV64Of-14" value="" style="shape=tableRow;horizontal=0;startSize=0;swimlaneHead=0;swimlaneBody=0;fillColor=none;collapsible=0;dropTarget=0;points=[[0,0.5],[1,0.5]];portConstraint=eastwest;top=0;left=0;right=0;bottom=0;" parent="cRXDesgfxKI7EuMV64Of-1" vertex="1">
          <mxGeometry y="181" width="343.3030672940339" height="38" as="geometry" />
        </mxCell>
        <mxCell id="cRXDesgfxKI7EuMV64Of-15" value="" style="shape=partialRectangle;connectable=0;fillColor=light-dark(#dae8fc, #ededed);top=0;left=0;bottom=0;right=0;editable=1;overflow=hidden;whiteSpace=wrap;html=1;" parent="cRXDesgfxKI7EuMV64Of-14" vertex="1">
          <mxGeometry width="34.80559794108092" height="38" as="geometry">
            <mxRectangle width="34.80559794108092" height="38" as="alternateBounds" />
          </mxGeometry>
        </mxCell>
        <mxCell id="cRXDesgfxKI7EuMV64Of-16" value="&lt;font style=&quot;font-size: 14px;&quot;&gt;property_size integer(10) NOT NULL&lt;/font&gt;" style="shape=partialRectangle;connectable=0;fillColor=light-dark(#dae8fc, #ededed);top=0;left=0;bottom=0;right=0;align=left;spacingLeft=6;overflow=hidden;whiteSpace=wrap;html=1;" parent="cRXDesgfxKI7EuMV64Of-14" vertex="1">
          <mxGeometry x="34.80559794108092" width="308.497469352953" height="38" as="geometry">
            <mxRectangle width="308.497469352953" height="38" as="alternateBounds" />
          </mxGeometry>
        </mxCell>
        <mxCell id="cRXDesgfxKI7EuMV64Of-20" value="" style="shape=tableRow;horizontal=0;startSize=0;swimlaneHead=0;swimlaneBody=0;fillColor=none;collapsible=0;dropTarget=0;points=[[0,0.5],[1,0.5]];portConstraint=eastwest;top=0;left=0;right=0;bottom=0;" parent="cRXDesgfxKI7EuMV64Of-1" vertex="1">
          <mxGeometry y="219" width="343.3030672940339" height="42" as="geometry" />
        </mxCell>
        <mxCell id="cRXDesgfxKI7EuMV64Of-21" value="" style="shape=partialRectangle;connectable=0;fillColor=light-dark(#dae8fc, #ededed);top=0;left=0;bottom=0;right=0;editable=1;overflow=hidden;whiteSpace=wrap;html=1;" parent="cRXDesgfxKI7EuMV64Of-20" vertex="1">
          <mxGeometry width="34.80559794108092" height="42" as="geometry">
            <mxRectangle width="34.80559794108092" height="42" as="alternateBounds" />
          </mxGeometry>
        </mxCell>
        <mxCell id="cRXDesgfxKI7EuMV64Of-22" value="&lt;font style=&quot;font-size: 14px;&quot;&gt;property_image bytea NOT NULL&lt;/font&gt;" style="shape=partialRectangle;connectable=0;fillColor=light-dark(#dae8fc, #ededed);top=0;left=0;bottom=0;right=0;align=left;spacingLeft=6;overflow=hidden;whiteSpace=wrap;html=1;" parent="cRXDesgfxKI7EuMV64Of-20" vertex="1">
          <mxGeometry x="34.80559794108092" width="308.497469352953" height="42" as="geometry">
            <mxRectangle width="308.497469352953" height="42" as="alternateBounds" />
          </mxGeometry>
        </mxCell>
        <mxCell id="cRXDesgfxKI7EuMV64Of-17" value="" style="shape=tableRow;horizontal=0;startSize=0;swimlaneHead=0;swimlaneBody=0;fillColor=none;collapsible=0;dropTarget=0;points=[[0,0.5],[1,0.5]];portConstraint=eastwest;top=0;left=0;right=0;bottom=0;" parent="cRXDesgfxKI7EuMV64Of-1" vertex="1">
          <mxGeometry y="261" width="343.3030672940339" height="41" as="geometry" />
        </mxCell>
        <mxCell id="cRXDesgfxKI7EuMV64Of-18" value="" style="shape=partialRectangle;connectable=0;fillColor=light-dark(#dae8fc, #ededed);top=0;left=0;bottom=0;right=0;editable=1;overflow=hidden;whiteSpace=wrap;html=1;" parent="cRXDesgfxKI7EuMV64Of-17" vertex="1">
          <mxGeometry width="34.80559794108092" height="41" as="geometry">
            <mxRectangle width="34.80559794108092" height="41" as="alternateBounds" />
          </mxGeometry>
        </mxCell>
        <mxCell id="cRXDesgfxKI7EuMV64Of-19" value="&lt;font style=&quot;font-size: 14px;&quot;&gt;listed_at timestamp without time zone&lt;/font&gt;" style="shape=partialRectangle;connectable=0;fillColor=light-dark(#dae8fc, #ededed);top=0;left=0;bottom=0;right=0;align=left;spacingLeft=6;overflow=hidden;whiteSpace=wrap;html=1;" parent="cRXDesgfxKI7EuMV64Of-17" vertex="1">
          <mxGeometry x="34.80559794108092" width="308.497469352953" height="41" as="geometry">
            <mxRectangle width="308.497469352953" height="41" as="alternateBounds" />
          </mxGeometry>
        </mxCell>
        <mxCell id="cRXDesgfxKI7EuMV64Of-23" value="Lease File" style="shape=table;startSize=30;container=1;collapsible=1;childLayout=tableLayout;fixedRows=1;rowLines=0;fontStyle=1;align=center;resizeLast=1;fontSize=16;labelBackgroundColor=default;fillStyle=auto;fillColor=light-dark(#fff4cc, #ededed);gradientColor=none;" parent="1" vertex="1">
          <mxGeometry x="337" y="36" width="326.27272727272697" height="275.0555725097656" as="geometry" />
        </mxCell>
        <mxCell id="cRXDesgfxKI7EuMV64Of-24" value="" style="shape=partialRectangle;collapsible=0;dropTarget=0;pointerEvents=0;fillColor=none;points=[[0,0.5],[1,0.5]];portConstraint=eastwest;top=0;left=0;right=0;bottom=1;fontSize=14;" parent="cRXDesgfxKI7EuMV64Of-23" vertex="1">
          <mxGeometry y="30" width="326.27272727272697" height="30" as="geometry" />
        </mxCell>
        <mxCell id="cRXDesgfxKI7EuMV64Of-25" value="PK" style="shape=partialRectangle;overflow=hidden;connectable=0;fillColor=light-dark(#FFFFFF,#EDEDED);top=0;left=0;bottom=0;right=0;fontStyle=1;fontSize=14;" parent="cRXDesgfxKI7EuMV64Of-24" vertex="1">
          <mxGeometry width="47.47222646077461" height="30" as="geometry">
            <mxRectangle width="47.47222646077461" height="30" as="alternateBounds" />
          </mxGeometry>
        </mxCell>
        <mxCell id="cRXDesgfxKI7EuMV64Of-26" value="file_id     serial" style="shape=partialRectangle;overflow=hidden;connectable=0;fillColor=light-dark(#ffffff, #ededed);top=0;left=0;bottom=0;right=0;align=left;spacingLeft=6;fontStyle=1;fontSize=14;" parent="cRXDesgfxKI7EuMV64Of-24" vertex="1">
          <mxGeometry x="47.47222646077461" width="278.80050081195236" height="30" as="geometry">
            <mxRectangle width="278.80050081195236" height="30" as="alternateBounds" />
          </mxGeometry>
        </mxCell>
        <mxCell id="cRXDesgfxKI7EuMV64Of-27" value="" style="shape=partialRectangle;collapsible=0;dropTarget=0;pointerEvents=0;fillColor=none;points=[[0,0.5],[1,0.5]];portConstraint=eastwest;top=0;left=0;right=0;bottom=0;fontSize=14;" parent="cRXDesgfxKI7EuMV64Of-23" vertex="1">
          <mxGeometry y="60" width="326.27272727272697" height="30" as="geometry" />
        </mxCell>
        <mxCell id="cRXDesgfxKI7EuMV64Of-28" value="" style="shape=partialRectangle;overflow=hidden;connectable=0;fillColor=light-dark(#dae8fc, #ededed);top=0;left=0;bottom=0;right=0;fontSize=14;" parent="cRXDesgfxKI7EuMV64Of-27" vertex="1">
          <mxGeometry width="47.47222646077461" height="30" as="geometry">
            <mxRectangle width="47.47222646077461" height="30" as="alternateBounds" />
          </mxGeometry>
        </mxCell>
        <mxCell id="cRXDesgfxKI7EuMV64Of-29" value="lease_number serial    NOT NULL" style="shape=partialRectangle;overflow=hidden;connectable=0;fillColor=#DAE8FC;top=0;left=0;bottom=0;right=0;align=left;spacingLeft=6;fontSize=14;strokeColor=light-dark(#DAE8FC,#EDEDED);" parent="cRXDesgfxKI7EuMV64Of-27" vertex="1">
          <mxGeometry x="47.47222646077461" width="278.80050081195236" height="30" as="geometry">
            <mxRectangle width="278.80050081195236" height="30" as="alternateBounds" />
          </mxGeometry>
        </mxCell>
        <mxCell id="cRXDesgfxKI7EuMV64Of-30" value="" style="shape=partialRectangle;collapsible=0;dropTarget=0;pointerEvents=0;fillColor=none;points=[[0,0.5],[1,0.5]];portConstraint=eastwest;top=0;left=0;right=0;bottom=0;fontSize=14;" parent="cRXDesgfxKI7EuMV64Of-23" vertex="1">
          <mxGeometry y="90" width="326.27272727272697" height="30" as="geometry" />
        </mxCell>
        <mxCell id="cRXDesgfxKI7EuMV64Of-31" value="" style="shape=partialRectangle;overflow=hidden;connectable=0;fillColor=light-dark(#dae8fc, #ededed);top=0;left=0;bottom=0;right=0;fontSize=14;" parent="cRXDesgfxKI7EuMV64Of-30" vertex="1">
          <mxGeometry width="47.47222646077461" height="30" as="geometry">
            <mxRectangle width="47.47222646077461" height="30" as="alternateBounds" />
          </mxGeometry>
        </mxCell>
        <mxCell id="cRXDesgfxKI7EuMV64Of-32" value="lease_start_date    date    NOT NULL" style="shape=partialRectangle;overflow=hidden;connectable=0;fillColor=#DAE8FC;top=0;left=0;bottom=0;right=0;align=left;spacingLeft=6;fontSize=14;strokeColor=light-dark(#DAE8FC,#EDEDED);" parent="cRXDesgfxKI7EuMV64Of-30" vertex="1">
          <mxGeometry x="47.47222646077461" width="278.80050081195236" height="30" as="geometry">
            <mxRectangle width="278.80050081195236" height="30" as="alternateBounds" />
          </mxGeometry>
        </mxCell>
        <mxCell id="cRXDesgfxKI7EuMV64Of-36" value="" style="shape=partialRectangle;collapsible=0;dropTarget=0;pointerEvents=0;fillColor=none;points=[[0,0.5],[1,0.5]];portConstraint=eastwest;top=0;left=0;right=0;bottom=0;fontSize=14;" parent="cRXDesgfxKI7EuMV64Of-23" vertex="1">
          <mxGeometry y="120" width="326.27272727272697" height="30" as="geometry" />
        </mxCell>
        <mxCell id="cRXDesgfxKI7EuMV64Of-37" value="" style="shape=partialRectangle;overflow=hidden;connectable=0;fillColor=light-dark(#dae8fc, #ededed);top=0;left=0;bottom=0;right=0;fontSize=14;" parent="cRXDesgfxKI7EuMV64Of-36" vertex="1">
          <mxGeometry width="47.47222646077461" height="30" as="geometry">
            <mxRectangle width="47.47222646077461" height="30" as="alternateBounds" />
          </mxGeometry>
        </mxCell>
        <mxCell id="cRXDesgfxKI7EuMV64Of-38" value="lease_end_date     date    NOT NULL" style="shape=partialRectangle;overflow=hidden;connectable=0;fillColor=#DAE8FC;top=0;left=0;bottom=0;right=0;align=left;spacingLeft=6;fontSize=14;strokeColor=light-dark(#DAE8FC,#EDEDED);" parent="cRXDesgfxKI7EuMV64Of-36" vertex="1">
          <mxGeometry x="47.47222646077461" width="278.80050081195236" height="30" as="geometry">
            <mxRectangle width="278.80050081195236" height="30" as="alternateBounds" />
          </mxGeometry>
        </mxCell>
        <mxCell id="cRXDesgfxKI7EuMV64Of-39" value="" style="shape=partialRectangle;collapsible=0;dropTarget=0;pointerEvents=0;fillColor=none;points=[[0,0.5],[1,0.5]];portConstraint=eastwest;top=0;left=0;right=0;bottom=0;fontSize=14;" parent="cRXDesgfxKI7EuMV64Of-23" vertex="1">
          <mxGeometry y="150" width="326.27272727272697" height="30" as="geometry" />
        </mxCell>
        <mxCell id="cRXDesgfxKI7EuMV64Of-40" value="" style="shape=partialRectangle;overflow=hidden;connectable=0;fillColor=light-dark(#dae8fc, #ededed);top=0;left=0;bottom=0;right=0;fontSize=14;" parent="cRXDesgfxKI7EuMV64Of-39" vertex="1">
          <mxGeometry width="47.47222646077461" height="30" as="geometry">
            <mxRectangle width="47.47222646077461" height="30" as="alternateBounds" />
          </mxGeometry>
        </mxCell>
        <mxCell id="cRXDesgfxKI7EuMV64Of-41" value="lease_document bytea    NOT NULL" style="shape=partialRectangle;overflow=hidden;connectable=0;fillColor=#DAE8FC;top=0;left=0;bottom=0;right=0;align=left;spacingLeft=6;fontSize=14;strokeColor=light-dark(#DAE8FC,#EDEDED);" parent="cRXDesgfxKI7EuMV64Of-39" vertex="1">
          <mxGeometry x="47.47222646077461" width="278.80050081195236" height="30" as="geometry">
            <mxRectangle width="278.80050081195236" height="30" as="alternateBounds" />
          </mxGeometry>
        </mxCell>
        <mxCell id="cRXDesgfxKI7EuMV64Of-42" value="" style="shape=partialRectangle;collapsible=0;dropTarget=0;pointerEvents=0;fillColor=none;points=[[0,0.5],[1,0.5]];portConstraint=eastwest;top=0;left=0;right=0;bottom=0;fontSize=14;" parent="cRXDesgfxKI7EuMV64Of-23" vertex="1">
          <mxGeometry y="180" width="326.27272727272697" height="30" as="geometry" />
        </mxCell>
        <mxCell id="cRXDesgfxKI7EuMV64Of-43" value="" style="shape=partialRectangle;overflow=hidden;connectable=0;fillColor=light-dark(#dae8fc, #ededed);top=0;left=0;bottom=0;right=0;fontSize=14;" parent="cRXDesgfxKI7EuMV64Of-42" vertex="1">
          <mxGeometry width="47.47222646077461" height="30" as="geometry">
            <mxRectangle width="47.47222646077461" height="30" as="alternateBounds" />
          </mxGeometry>
        </mxCell>
        <mxCell id="cRXDesgfxKI7EuMV64Of-44" value="rent_amount numeric(10,2) NOT NULL" style="shape=partialRectangle;overflow=hidden;connectable=0;fillColor=#DAE8FC;top=0;left=0;bottom=0;right=0;align=left;spacingLeft=6;fontSize=14;strokeColor=light-dark(#DAE8FC,#EDEDED);" parent="cRXDesgfxKI7EuMV64Of-42" vertex="1">
          <mxGeometry x="47.47222646077461" width="278.80050081195236" height="30" as="geometry">
            <mxRectangle width="278.80050081195236" height="30" as="alternateBounds" />
          </mxGeometry>
        </mxCell>
        <mxCell id="cRXDesgfxKI7EuMV64Of-45" value="" style="shape=partialRectangle;collapsible=0;dropTarget=0;pointerEvents=0;fillColor=none;points=[[0,0.5],[1,0.5]];portConstraint=eastwest;top=0;left=0;right=0;bottom=0;fontSize=14;" parent="cRXDesgfxKI7EuMV64Of-23" vertex="1">
          <mxGeometry y="210" width="326.27272727272697" height="25" as="geometry" />
        </mxCell>
        <mxCell id="cRXDesgfxKI7EuMV64Of-46" value="FK" style="shape=partialRectangle;overflow=hidden;connectable=0;fillColor=light-dark(#dae8fc, #ededed);top=0;left=0;bottom=0;right=0;fontSize=14;" parent="cRXDesgfxKI7EuMV64Of-45" vertex="1">
          <mxGeometry width="47.47222646077461" height="25" as="geometry">
            <mxRectangle width="47.47222646077461" height="25" as="alternateBounds" />
          </mxGeometry>
        </mxCell>
        <mxCell id="cRXDesgfxKI7EuMV64Of-47" value="property_id integer(20) NOT NULL" style="shape=partialRectangle;overflow=hidden;connectable=0;fillColor=#DAE8FC;top=0;left=0;bottom=0;right=0;align=left;spacingLeft=6;fontSize=14;strokeColor=light-dark(#DAE8FC,#EDEDED);" parent="cRXDesgfxKI7EuMV64Of-45" vertex="1">
          <mxGeometry x="47.47222646077461" width="278.80050081195236" height="25" as="geometry">
            <mxRectangle width="278.80050081195236" height="25" as="alternateBounds" />
          </mxGeometry>
        </mxCell>
        <mxCell id="cRXDesgfxKI7EuMV64Of-48" value="" style="shape=partialRectangle;collapsible=0;dropTarget=0;pointerEvents=0;fillColor=none;points=[[0,0.5],[1,0.5]];portConstraint=eastwest;top=0;left=0;right=0;bottom=0;fontSize=14;" parent="cRXDesgfxKI7EuMV64Of-23" vertex="1">
          <mxGeometry y="235" width="326.27272727272697" height="30" as="geometry" />
        </mxCell>
        <mxCell id="cRXDesgfxKI7EuMV64Of-49" value="" style="shape=partialRectangle;overflow=hidden;connectable=0;fillColor=light-dark(#dae8fc, #ededed);top=0;left=0;bottom=0;right=0;fontSize=14;" parent="cRXDesgfxKI7EuMV64Of-48" vertex="1">
          <mxGeometry width="47.47222646077461" height="30" as="geometry">
            <mxRectangle width="47.47222646077461" height="30" as="alternateBounds" />
          </mxGeometry>
        </mxCell>
        <mxCell id="cRXDesgfxKI7EuMV64Of-50" value="uploaded_at timestamp without time zone" style="shape=partialRectangle;overflow=hidden;connectable=0;fillColor=#DAE8FC;top=0;left=0;bottom=0;right=0;align=left;spacingLeft=6;fontSize=14;strokeColor=light-dark(#DAE8FC,#EDEDED);" parent="cRXDesgfxKI7EuMV64Of-48" vertex="1">
          <mxGeometry x="47.47222646077461" width="278.80050081195236" height="30" as="geometry">
            <mxRectangle width="278.80050081195236" height="30" as="alternateBounds" />
          </mxGeometry>
        </mxCell>
        <mxCell id="cRXDesgfxKI7EuMV64Of-51" value="Service Request" style="shape=table;startSize=35;container=1;collapsible=1;childLayout=tableLayout;fixedRows=1;rowLines=0;fontStyle=1;align=center;resizeLast=1;fontSize=16;fillColor=light-dark(#fff4cc, #ededed);" parent="1" vertex="1">
          <mxGeometry x="412" y="728" width="323.0277862548828" height="250" as="geometry" />
        </mxCell>
        <mxCell id="cRXDesgfxKI7EuMV64Of-52" value="" style="shape=partialRectangle;collapsible=0;dropTarget=0;pointerEvents=0;fillColor=none;points=[[0,0.5],[1,0.5]];portConstraint=eastwest;top=0;left=0;right=0;bottom=1;fontSize=14;" parent="cRXDesgfxKI7EuMV64Of-51" vertex="1">
          <mxGeometry y="35" width="323.0277862548828" height="30" as="geometry" />
        </mxCell>
        <mxCell id="cRXDesgfxKI7EuMV64Of-53" value="PK" style="shape=partialRectangle;overflow=hidden;connectable=0;fillColor=none;top=0;left=0;bottom=0;right=0;fontStyle=1;fontSize=14;" parent="cRXDesgfxKI7EuMV64Of-52" vertex="1">
          <mxGeometry width="36.41668701171875" height="30" as="geometry">
            <mxRectangle width="36.41668701171875" height="30" as="alternateBounds" />
          </mxGeometry>
        </mxCell>
        <mxCell id="cRXDesgfxKI7EuMV64Of-54" value="sr_id serial" style="shape=partialRectangle;overflow=hidden;connectable=0;fillColor=none;top=0;left=0;bottom=0;right=0;align=left;spacingLeft=6;fontStyle=1;fontSize=14;" parent="cRXDesgfxKI7EuMV64Of-52" vertex="1">
          <mxGeometry x="36.41668701171875" width="286.61109924316406" height="30" as="geometry">
            <mxRectangle width="286.61109924316406" height="30" as="alternateBounds" />
          </mxGeometry>
        </mxCell>
        <mxCell id="cRXDesgfxKI7EuMV64Of-55" value="" style="shape=partialRectangle;collapsible=0;dropTarget=0;pointerEvents=0;fillColor=light-dark(#dae8fc, #ededed);points=[[0,0.5],[1,0.5]];portConstraint=eastwest;top=0;left=0;right=0;bottom=0;fontSize=14;" parent="cRXDesgfxKI7EuMV64Of-51" vertex="1">
          <mxGeometry y="65" width="323.0277862548828" height="30" as="geometry" />
        </mxCell>
        <mxCell id="cRXDesgfxKI7EuMV64Of-56" value="" style="shape=partialRectangle;overflow=hidden;connectable=0;fillColor=none;top=0;left=0;bottom=0;right=0;fontSize=14;" parent="cRXDesgfxKI7EuMV64Of-55" vertex="1">
          <mxGeometry width="36.41668701171875" height="30" as="geometry">
            <mxRectangle width="36.41668701171875" height="30" as="alternateBounds" />
          </mxGeometry>
        </mxCell>
        <mxCell id="cRXDesgfxKI7EuMV64Of-57" value="description text(200)   NOT NULL" style="shape=partialRectangle;overflow=hidden;connectable=0;fillColor=none;top=0;left=0;bottom=0;right=0;align=left;spacingLeft=6;fontSize=14;" parent="cRXDesgfxKI7EuMV64Of-55" vertex="1">
          <mxGeometry x="36.41668701171875" width="286.61109924316406" height="30" as="geometry">
            <mxRectangle width="286.61109924316406" height="30" as="alternateBounds" />
          </mxGeometry>
        </mxCell>
        <mxCell id="cRXDesgfxKI7EuMV64Of-58" value="" style="shape=partialRectangle;collapsible=0;dropTarget=0;pointerEvents=0;fillColor=none;points=[[0,0.5],[1,0.5]];portConstraint=eastwest;top=0;left=0;right=0;bottom=0;fontSize=14;" parent="cRXDesgfxKI7EuMV64Of-51" vertex="1">
          <mxGeometry y="95" width="323.0277862548828" height="30" as="geometry" />
        </mxCell>
        <mxCell id="cRXDesgfxKI7EuMV64Of-59" value="" style="shape=partialRectangle;overflow=hidden;connectable=0;fillColor=light-dark(#dae8fc, #ededed);top=0;left=0;bottom=0;right=0;fontSize=14;" parent="cRXDesgfxKI7EuMV64Of-58" vertex="1">
          <mxGeometry width="36.41668701171875" height="30" as="geometry">
            <mxRectangle width="36.41668701171875" height="30" as="alternateBounds" />
          </mxGeometry>
        </mxCell>
        <mxCell id="cRXDesgfxKI7EuMV64Of-60" value="img bytea    NOT NULL" style="shape=partialRectangle;overflow=hidden;connectable=0;fillColor=light-dark(#dae8fc, #ededed);top=0;left=0;bottom=0;right=0;align=left;spacingLeft=6;fontSize=14;" parent="cRXDesgfxKI7EuMV64Of-58" vertex="1">
          <mxGeometry x="36.41668701171875" width="286.61109924316406" height="30" as="geometry">
            <mxRectangle width="286.61109924316406" height="30" as="alternateBounds" />
          </mxGeometry>
        </mxCell>
        <mxCell id="cRXDesgfxKI7EuMV64Of-61" value="" style="shape=partialRectangle;collapsible=0;dropTarget=0;pointerEvents=0;fillColor=none;points=[[0,0.5],[1,0.5]];portConstraint=eastwest;top=0;left=0;right=0;bottom=0;fontSize=14;" parent="cRXDesgfxKI7EuMV64Of-51" vertex="1">
          <mxGeometry y="125" width="323.0277862548828" height="30" as="geometry" />
        </mxCell>
        <mxCell id="cRXDesgfxKI7EuMV64Of-62" value="FK" style="shape=partialRectangle;overflow=hidden;connectable=0;fillColor=light-dark(#dae8fc, #ededed);top=0;left=0;bottom=0;right=0;fontSize=14;" parent="cRXDesgfxKI7EuMV64Of-61" vertex="1">
          <mxGeometry width="36.41668701171875" height="30" as="geometry">
            <mxRectangle width="36.41668701171875" height="30" as="alternateBounds" />
          </mxGeometry>
        </mxCell>
        <mxCell id="cRXDesgfxKI7EuMV64Of-63" value="property_number integer(20)    NOT NULL" style="shape=partialRectangle;overflow=hidden;connectable=0;fillColor=light-dark(#dae8fc, #ededed);top=0;left=0;bottom=0;right=0;align=left;spacingLeft=6;fontSize=14;" parent="cRXDesgfxKI7EuMV64Of-61" vertex="1">
          <mxGeometry x="36.41668701171875" width="286.61109924316406" height="30" as="geometry">
            <mxRectangle width="286.61109924316406" height="30" as="alternateBounds" />
          </mxGeometry>
        </mxCell>
        <mxCell id="cRXDesgfxKI7EuMV64Of-64" value="" style="shape=partialRectangle;collapsible=0;dropTarget=0;pointerEvents=0;fillColor=none;points=[[0,0.5],[1,0.5]];portConstraint=eastwest;top=0;left=0;right=0;bottom=0;fontSize=14;" parent="cRXDesgfxKI7EuMV64Of-51" vertex="1">
          <mxGeometry y="155" width="323.0277862548828" height="30" as="geometry" />
        </mxCell>
        <mxCell id="cRXDesgfxKI7EuMV64Of-65" value="FK" style="shape=partialRectangle;overflow=hidden;connectable=0;fillColor=light-dark(#dae8fc, #ededed);top=0;left=0;bottom=0;right=0;fontSize=14;" parent="cRXDesgfxKI7EuMV64Of-64" vertex="1">
          <mxGeometry width="36.41668701171875" height="30" as="geometry">
            <mxRectangle width="36.41668701171875" height="30" as="alternateBounds" />
          </mxGeometry>
        </mxCell>
        <mxCell id="cRXDesgfxKI7EuMV64Of-66" value="technician_id integer(20) NOT NULL" style="shape=partialRectangle;overflow=hidden;connectable=0;fillColor=light-dark(#dae8fc, #ededed);top=0;left=0;bottom=0;right=0;align=left;spacingLeft=6;fontStyle=0;fontSize=14;" parent="cRXDesgfxKI7EuMV64Of-64" vertex="1">
          <mxGeometry x="36.41668701171875" width="286.61109924316406" height="30" as="geometry">
            <mxRectangle width="286.61109924316406" height="30" as="alternateBounds" />
          </mxGeometry>
        </mxCell>
        <mxCell id="cRXDesgfxKI7EuMV64Of-67" value="" style="shape=partialRectangle;collapsible=0;dropTarget=0;pointerEvents=0;fillColor=none;points=[[0,0.5],[1,0.5]];portConstraint=eastwest;top=0;left=0;right=0;bottom=0;fontSize=14;" parent="cRXDesgfxKI7EuMV64Of-51" vertex="1">
          <mxGeometry y="185" width="323.0277862548828" height="30" as="geometry" />
        </mxCell>
        <mxCell id="cRXDesgfxKI7EuMV64Of-68" value="" style="shape=partialRectangle;overflow=hidden;connectable=0;fillColor=light-dark(#dae8fc, #ededed);top=0;left=0;bottom=0;right=0;fontSize=14;" parent="cRXDesgfxKI7EuMV64Of-67" vertex="1">
          <mxGeometry width="36.41668701171875" height="30" as="geometry">
            <mxRectangle width="36.41668701171875" height="30" as="alternateBounds" />
          </mxGeometry>
        </mxCell>
        <mxCell id="cRXDesgfxKI7EuMV64Of-69" value="status character varying(50)    NOT NULL" style="shape=partialRectangle;overflow=hidden;connectable=0;fillColor=light-dark(#dae8fc, #ededed);top=0;left=0;bottom=0;right=0;align=left;spacingLeft=6;fontStyle=0;fontSize=14;" parent="cRXDesgfxKI7EuMV64Of-67" vertex="1">
          <mxGeometry x="36.41668701171875" width="286.61109924316406" height="30" as="geometry">
            <mxRectangle width="286.61109924316406" height="30" as="alternateBounds" />
          </mxGeometry>
        </mxCell>
        <mxCell id="cRXDesgfxKI7EuMV64Of-70" value="" style="shape=partialRectangle;collapsible=0;dropTarget=0;pointerEvents=0;fillColor=none;points=[[0,0.5],[1,0.5]];portConstraint=eastwest;top=0;left=0;right=0;bottom=0;fontSize=14;" parent="cRXDesgfxKI7EuMV64Of-51" vertex="1">
          <mxGeometry y="215" width="323.0277862548828" height="30" as="geometry" />
        </mxCell>
        <mxCell id="cRXDesgfxKI7EuMV64Of-71" value="" style="shape=partialRectangle;overflow=hidden;connectable=0;fillColor=light-dark(#dae8fc, #ededed);top=0;left=0;bottom=0;right=0;fontSize=14;" parent="cRXDesgfxKI7EuMV64Of-70" vertex="1">
          <mxGeometry width="36.41668701171875" height="30" as="geometry">
            <mxRectangle width="36.41668701171875" height="30" as="alternateBounds" />
          </mxGeometry>
        </mxCell>
        <mxCell id="cRXDesgfxKI7EuMV64Of-72" value="created_at timestamp without time zone" style="shape=partialRectangle;overflow=hidden;connectable=0;fillColor=light-dark(#dae8fc, #ededed);top=0;left=0;bottom=0;right=0;align=left;spacingLeft=6;fontStyle=0;fontSize=14;" parent="cRXDesgfxKI7EuMV64Of-70" vertex="1">
          <mxGeometry x="36.41668701171875" width="286.61109924316406" height="30" as="geometry">
            <mxRectangle width="286.61109924316406" height="30" as="alternateBounds" />
          </mxGeometry>
        </mxCell>
        <mxCell id="cRXDesgfxKI7EuMV64Of-76" value="Technicians" style="shape=table;startSize=30;container=1;collapsible=1;childLayout=tableLayout;fixedRows=1;rowLines=0;fontStyle=1;align=center;resizeLast=1;fontSize=15;fillColor=light-dark(#fff4cc, #ededed);" parent="1" vertex="1">
          <mxGeometry x="95" y="967" width="301.76193382626485" height="190" as="geometry" />
        </mxCell>
        <mxCell id="cRXDesgfxKI7EuMV64Of-77" value="" style="shape=partialRectangle;collapsible=0;dropTarget=0;pointerEvents=0;fillColor=default;points=[[0,0.5],[1,0.5]];portConstraint=eastwest;top=0;left=0;right=0;bottom=1;" parent="cRXDesgfxKI7EuMV64Of-76" vertex="1">
          <mxGeometry y="30" width="301.76193382626485" height="30" as="geometry" />
        </mxCell>
        <mxCell id="cRXDesgfxKI7EuMV64Of-78" value="PK" style="shape=partialRectangle;overflow=hidden;connectable=0;fillColor=default;top=0;left=0;bottom=0;right=0;fontStyle=1;" parent="cRXDesgfxKI7EuMV64Of-77" vertex="1">
          <mxGeometry width="29.907430013020814" height="30" as="geometry">
            <mxRectangle width="29.907430013020814" height="30" as="alternateBounds" />
          </mxGeometry>
        </mxCell>
        <mxCell id="cRXDesgfxKI7EuMV64Of-79" value="technician_id    serial" style="shape=partialRectangle;overflow=hidden;connectable=0;fillColor=default;top=0;left=0;bottom=0;right=0;align=left;spacingLeft=6;fontStyle=1;fontSize=14;" parent="cRXDesgfxKI7EuMV64Of-77" vertex="1">
          <mxGeometry x="29.907430013020814" width="271.85450381324404" height="30" as="geometry">
            <mxRectangle width="271.85450381324404" height="30" as="alternateBounds" />
          </mxGeometry>
        </mxCell>
        <mxCell id="cRXDesgfxKI7EuMV64Of-80" value="" style="shape=partialRectangle;collapsible=0;dropTarget=0;pointerEvents=0;fillColor=default;points=[[0,0.5],[1,0.5]];portConstraint=eastwest;top=0;left=0;right=0;bottom=0;" parent="cRXDesgfxKI7EuMV64Of-76" vertex="1">
          <mxGeometry y="60" width="301.76193382626485" height="30" as="geometry" />
        </mxCell>
        <mxCell id="cRXDesgfxKI7EuMV64Of-81" value="" style="shape=partialRectangle;overflow=hidden;connectable=0;fillColor=light-dark(#dae8fc, #ededed);top=0;left=0;bottom=0;right=0;" parent="cRXDesgfxKI7EuMV64Of-80" vertex="1">
          <mxGeometry width="29.907430013020814" height="30" as="geometry">
            <mxRectangle width="29.907430013020814" height="30" as="alternateBounds" />
          </mxGeometry>
        </mxCell>
        <mxCell id="cRXDesgfxKI7EuMV64Of-82" value="technician_name character varying(255)" style="shape=partialRectangle;overflow=hidden;connectable=0;fillColor=light-dark(#dae8fc, #ededed);top=0;left=0;bottom=0;right=0;align=left;spacingLeft=6;fontSize=14;" parent="cRXDesgfxKI7EuMV64Of-80" vertex="1">
          <mxGeometry x="29.907430013020814" width="271.85450381324404" height="30" as="geometry">
            <mxRectangle width="271.85450381324404" height="30" as="alternateBounds" />
          </mxGeometry>
        </mxCell>
        <mxCell id="cRXDesgfxKI7EuMV64Of-83" value="" style="shape=partialRectangle;collapsible=0;dropTarget=0;pointerEvents=0;fillColor=default;points=[[0,0.5],[1,0.5]];portConstraint=eastwest;top=0;left=0;right=0;bottom=0;" parent="cRXDesgfxKI7EuMV64Of-76" vertex="1">
          <mxGeometry y="90" width="301.76193382626485" height="30" as="geometry" />
        </mxCell>
        <mxCell id="cRXDesgfxKI7EuMV64Of-84" value="" style="shape=partialRectangle;overflow=hidden;connectable=0;fillColor=light-dark(#dae8fc, #ededed);top=0;left=0;bottom=0;right=0;" parent="cRXDesgfxKI7EuMV64Of-83" vertex="1">
          <mxGeometry width="29.907430013020814" height="30" as="geometry">
            <mxRectangle width="29.907430013020814" height="30" as="alternateBounds" />
          </mxGeometry>
        </mxCell>
        <mxCell id="cRXDesgfxKI7EuMV64Of-85" value="technician_email character varying(255)" style="shape=partialRectangle;overflow=hidden;connectable=0;fillColor=light-dark(#dae8fc, #ededed);top=0;left=0;bottom=0;right=0;align=left;spacingLeft=6;fontSize=14;" parent="cRXDesgfxKI7EuMV64Of-83" vertex="1">
          <mxGeometry x="29.907430013020814" width="271.85450381324404" height="30" as="geometry">
            <mxRectangle width="271.85450381324404" height="30" as="alternateBounds" />
          </mxGeometry>
        </mxCell>
        <mxCell id="cRXDesgfxKI7EuMV64Of-86" value="" style="shape=partialRectangle;collapsible=0;dropTarget=0;pointerEvents=0;fillColor=default;points=[[0,0.5],[1,0.5]];portConstraint=eastwest;top=0;left=0;right=0;bottom=0;" parent="cRXDesgfxKI7EuMV64Of-76" vertex="1">
          <mxGeometry y="120" width="301.76193382626485" height="30" as="geometry" />
        </mxCell>
        <mxCell id="cRXDesgfxKI7EuMV64Of-87" value="" style="shape=partialRectangle;overflow=hidden;connectable=0;fillColor=light-dark(#dae8fc, #ededed);top=0;left=0;bottom=0;right=0;" parent="cRXDesgfxKI7EuMV64Of-86" vertex="1">
          <mxGeometry width="29.907430013020814" height="30" as="geometry">
            <mxRectangle width="29.907430013020814" height="30" as="alternateBounds" />
          </mxGeometry>
        </mxCell>
        <mxCell id="cRXDesgfxKI7EuMV64Of-88" value="availability_status character varying(255)" style="shape=partialRectangle;overflow=hidden;connectable=0;fillColor=light-dark(#dae8fc, #ededed);top=0;left=0;bottom=0;right=0;align=left;spacingLeft=6;fontSize=14;" parent="cRXDesgfxKI7EuMV64Of-86" vertex="1">
          <mxGeometry x="29.907430013020814" width="271.85450381324404" height="30" as="geometry">
            <mxRectangle width="271.85450381324404" height="30" as="alternateBounds" />
          </mxGeometry>
        </mxCell>
        <mxCell id="cRXDesgfxKI7EuMV64Of-89" value="" style="shape=partialRectangle;collapsible=0;dropTarget=0;pointerEvents=0;fillColor=default;points=[[0,0.5],[1,0.5]];portConstraint=eastwest;top=0;left=0;right=0;bottom=0;" parent="cRXDesgfxKI7EuMV64Of-76" vertex="1">
          <mxGeometry y="150" width="301.76193382626485" height="30" as="geometry" />
        </mxCell>
        <mxCell id="cRXDesgfxKI7EuMV64Of-90" value="" style="shape=partialRectangle;overflow=hidden;connectable=0;fillColor=light-dark(#dae8fc, #ededed);top=0;left=0;bottom=0;right=0;" parent="cRXDesgfxKI7EuMV64Of-89" vertex="1">
          <mxGeometry width="29.907430013020814" height="30" as="geometry">
            <mxRectangle width="29.907430013020814" height="30" as="alternateBounds" />
          </mxGeometry>
        </mxCell>
        <mxCell id="cRXDesgfxKI7EuMV64Of-91" value="joined_at timestamp without timezone" style="shape=partialRectangle;overflow=hidden;connectable=0;fillColor=light-dark(#dae8fc, #ededed);top=0;left=0;bottom=0;right=0;align=left;spacingLeft=6;fontSize=14;" parent="cRXDesgfxKI7EuMV64Of-89" vertex="1">
          <mxGeometry x="29.907430013020814" width="271.85450381324404" height="30" as="geometry">
            <mxRectangle width="271.85450381324404" height="30" as="alternateBounds" />
          </mxGeometry>
        </mxCell>
        <mxCell id="cRXDesgfxKI7EuMV64Of-95" value="Tenant" style="shape=table;startSize=33;container=1;collapsible=1;childLayout=tableLayout;fixedRows=1;rowLines=0;fontStyle=1;align=center;resizeLast=1;rounded=0;shadow=1;fontSize=16;fillColor=light-dark(#fff4cc, #ededed);" parent="1" vertex="1">
          <mxGeometry x="875" y="36" width="416.77775065104174" height="217.83" as="geometry" />
        </mxCell>
        <mxCell id="cRXDesgfxKI7EuMV64Of-96" value="" style="shape=partialRectangle;collapsible=0;dropTarget=0;pointerEvents=0;fillColor=none;points=[[0,0.5],[1,0.5]];portConstraint=eastwest;top=0;left=0;right=0;bottom=1;" parent="cRXDesgfxKI7EuMV64Of-95" vertex="1">
          <mxGeometry y="33" width="416.77775065104174" height="28" as="geometry" />
        </mxCell>
        <mxCell id="cRXDesgfxKI7EuMV64Of-97" value="PK" style="shape=partialRectangle;overflow=hidden;connectable=0;fillColor=none;top=0;left=0;bottom=0;right=0;fontStyle=1;" parent="cRXDesgfxKI7EuMV64Of-96" vertex="1">
          <mxGeometry width="45.40482003348211" height="28" as="geometry">
            <mxRectangle width="45.40482003348211" height="28" as="alternateBounds" />
          </mxGeometry>
        </mxCell>
        <mxCell id="cRXDesgfxKI7EuMV64Of-98" value="tenant_id serial" style="shape=partialRectangle;overflow=hidden;connectable=0;fillColor=none;top=0;left=0;bottom=0;right=0;align=left;spacingLeft=6;fontStyle=1;" parent="cRXDesgfxKI7EuMV64Of-96" vertex="1">
          <mxGeometry x="45.40482003348211" width="371.37293061755963" height="28" as="geometry">
            <mxRectangle width="371.37293061755963" height="28" as="alternateBounds" />
          </mxGeometry>
        </mxCell>
        <mxCell id="cRXDesgfxKI7EuMV64Of-99" value="" style="shape=partialRectangle;collapsible=0;dropTarget=0;pointerEvents=0;fillColor=none;points=[[0,0.5],[1,0.5]];portConstraint=eastwest;top=0;left=0;right=0;bottom=0;" parent="cRXDesgfxKI7EuMV64Of-95" vertex="1">
          <mxGeometry y="61" width="416.77775065104174" height="30" as="geometry" />
        </mxCell>
        <mxCell id="cRXDesgfxKI7EuMV64Of-100" value="" style="shape=partialRectangle;overflow=hidden;connectable=0;fillColor=light-dark(#dae8fc, #ededed);top=0;left=0;bottom=0;right=0;" parent="cRXDesgfxKI7EuMV64Of-99" vertex="1">
          <mxGeometry width="45.40482003348211" height="30" as="geometry">
            <mxRectangle width="45.40482003348211" height="30" as="alternateBounds" />
          </mxGeometry>
        </mxCell>
        <object label="role character varying (25) NOT NULL" tenant_contact="" id="cRXDesgfxKI7EuMV64Of-101">
          <mxCell style="shape=partialRectangle;overflow=hidden;connectable=0;fillColor=light-dark(#dae8fc, #ededed);top=0;left=0;bottom=0;right=0;align=left;spacingLeft=6;fontSize=16;" parent="cRXDesgfxKI7EuMV64Of-99" vertex="1">
            <mxGeometry x="45.40482003348211" width="371.37293061755963" height="30" as="geometry">
              <mxRectangle width="371.37293061755963" height="30" as="alternateBounds" />
            </mxGeometry>
          </mxCell>
        </object>
        <mxCell id="cRXDesgfxKI7EuMV64Of-214" value="" style="shape=partialRectangle;collapsible=0;dropTarget=0;pointerEvents=0;fillColor=none;points=[[0,0.5],[1,0.5]];portConstraint=eastwest;top=0;left=0;right=0;bottom=0;" parent="cRXDesgfxKI7EuMV64Of-95" vertex="1">
          <mxGeometry y="91" width="416.77775065104174" height="30" as="geometry" />
        </mxCell>
        <mxCell id="cRXDesgfxKI7EuMV64Of-215" value="" style="shape=partialRectangle;overflow=hidden;connectable=0;fillColor=light-dark(#dae8fc, #ededed);top=0;left=0;bottom=0;right=0;" parent="cRXDesgfxKI7EuMV64Of-214" vertex="1">
          <mxGeometry width="45.40482003348211" height="30" as="geometry">
            <mxRectangle width="45.40482003348211" height="30" as="alternateBounds" />
          </mxGeometry>
        </mxCell>
        <object label="tenant_name character varying(25) NOT NULL" tenant_contact="" id="cRXDesgfxKI7EuMV64Of-216">
          <mxCell style="shape=partialRectangle;overflow=hidden;connectable=0;fillColor=light-dark(#dae8fc, #ededed);top=0;left=0;bottom=0;right=0;align=left;spacingLeft=6;fontSize=16;" parent="cRXDesgfxKI7EuMV64Of-214" vertex="1">
            <mxGeometry x="45.40482003348211" width="371.37293061755963" height="30" as="geometry">
              <mxRectangle width="371.37293061755963" height="30" as="alternateBounds" />
            </mxGeometry>
          </mxCell>
        </object>
        <mxCell id="cRXDesgfxKI7EuMV64Of-102" value="" style="shape=partialRectangle;collapsible=0;dropTarget=0;pointerEvents=0;fillColor=none;points=[[0,0.5],[1,0.5]];portConstraint=eastwest;top=0;left=0;right=0;bottom=0;" parent="cRXDesgfxKI7EuMV64Of-95" vertex="1">
          <mxGeometry y="121" width="416.77775065104174" height="30" as="geometry" />
        </mxCell>
        <mxCell id="cRXDesgfxKI7EuMV64Of-103" value="" style="shape=partialRectangle;overflow=hidden;connectable=0;fillColor=light-dark(#dae8fc, #ededed);top=0;left=0;bottom=0;right=0;" parent="cRXDesgfxKI7EuMV64Of-102" vertex="1">
          <mxGeometry width="45.40482003348211" height="30" as="geometry">
            <mxRectangle width="45.40482003348211" height="30" as="alternateBounds" />
          </mxGeometry>
        </mxCell>
        <object label="tenant_email character varying(25) NOT NULL" tenant_contact="" id="cRXDesgfxKI7EuMV64Of-104">
          <mxCell style="shape=partialRectangle;overflow=hidden;connectable=0;fillColor=light-dark(#dae8fc, #ededed);top=0;left=0;bottom=0;right=0;align=left;spacingLeft=6;fontSize=16;" parent="cRXDesgfxKI7EuMV64Of-102" vertex="1">
            <mxGeometry x="45.40482003348211" width="371.37293061755963" height="30" as="geometry">
              <mxRectangle width="371.37293061755963" height="30" as="alternateBounds" />
            </mxGeometry>
          </mxCell>
        </object>
        <mxCell id="cRXDesgfxKI7EuMV64Of-105" value="" style="shape=partialRectangle;collapsible=0;dropTarget=0;pointerEvents=0;fillColor=none;points=[[0,0.5],[1,0.5]];portConstraint=eastwest;top=0;left=0;right=0;bottom=0;" parent="cRXDesgfxKI7EuMV64Of-95" vertex="1">
          <mxGeometry y="151" width="416.77775065104174" height="30" as="geometry" />
        </mxCell>
        <mxCell id="cRXDesgfxKI7EuMV64Of-106" value="FK" style="shape=partialRectangle;overflow=hidden;connectable=0;fillColor=light-dark(#dae8fc, #ededed);top=0;left=0;bottom=0;right=0;" parent="cRXDesgfxKI7EuMV64Of-105" vertex="1">
          <mxGeometry width="45.40482003348211" height="30" as="geometry">
            <mxRectangle width="45.40482003348211" height="30" as="alternateBounds" />
          </mxGeometry>
        </mxCell>
        <object label="property_number integer(20) NOT NULL" tenant_contact="" id="cRXDesgfxKI7EuMV64Of-107">
          <mxCell style="shape=partialRectangle;overflow=hidden;connectable=0;fillColor=light-dark(#dae8fc, #ededed);top=0;left=0;bottom=0;right=0;align=left;spacingLeft=6;fontSize=16;" parent="cRXDesgfxKI7EuMV64Of-105" vertex="1">
            <mxGeometry x="45.40482003348211" width="371.37293061755963" height="30" as="geometry">
              <mxRectangle width="371.37293061755963" height="30" as="alternateBounds" />
            </mxGeometry>
          </mxCell>
        </object>
        <mxCell id="cRXDesgfxKI7EuMV64Of-156" value="" style="shape=partialRectangle;collapsible=0;dropTarget=0;pointerEvents=0;fillColor=none;points=[[0,0.5],[1,0.5]];portConstraint=eastwest;top=0;left=0;right=0;bottom=0;" parent="cRXDesgfxKI7EuMV64Of-95" vertex="1">
          <mxGeometry y="181" width="416.77775065104174" height="30" as="geometry" />
        </mxCell>
        <mxCell id="cRXDesgfxKI7EuMV64Of-157" value="" style="shape=partialRectangle;overflow=hidden;connectable=0;fillColor=light-dark(#dae8fc, #ededed);top=0;left=0;bottom=0;right=0;" parent="cRXDesgfxKI7EuMV64Of-156" vertex="1">
          <mxGeometry width="45.40482003348211" height="30" as="geometry">
            <mxRectangle width="45.40482003348211" height="30" as="alternateBounds" />
          </mxGeometry>
        </mxCell>
        <object label="joined_at timestamp without time zone NOT NULL" tenant_contact="" id="cRXDesgfxKI7EuMV64Of-158">
          <mxCell style="shape=partialRectangle;overflow=hidden;connectable=0;fillColor=light-dark(#dae8fc, #ededed);top=0;left=0;bottom=0;right=0;align=left;spacingLeft=6;fontSize=16;" parent="cRXDesgfxKI7EuMV64Of-156" vertex="1">
            <mxGeometry x="45.40482003348211" width="371.37293061755963" height="30" as="geometry">
              <mxRectangle width="371.37293061755963" height="30" as="alternateBounds" />
            </mxGeometry>
          </mxCell>
        </object>
        <mxCell id="cRXDesgfxKI7EuMV64Of-120" value="Manager" style="shape=table;startSize=27;container=1;collapsible=1;childLayout=tableLayout;fixedRows=1;rowLines=0;fontStyle=1;align=center;resizeLast=1;fontSize=16;fillColor=light-dark(#fff4cc, #ff9fff);" parent="1" vertex="1">
          <mxGeometry x="1308" y="312" width="374.0417175292969" height="269.5696461995441" as="geometry" />
        </mxCell>
        <mxCell id="cRXDesgfxKI7EuMV64Of-121" value="" style="shape=partialRectangle;collapsible=0;dropTarget=0;pointerEvents=0;fillColor=none;points=[[0,0.5],[1,0.5]];portConstraint=eastwest;top=0;left=0;right=0;bottom=1;" parent="cRXDesgfxKI7EuMV64Of-120" vertex="1">
          <mxGeometry y="27" width="374.0417175292969" height="35" as="geometry" />
        </mxCell>
        <mxCell id="cRXDesgfxKI7EuMV64Of-122" value="PK" style="shape=partialRectangle;overflow=hidden;connectable=0;fillColor=none;top=0;left=0;bottom=0;right=0;fontStyle=1;" parent="cRXDesgfxKI7EuMV64Of-121" vertex="1">
          <mxGeometry width="32.166717529296875" height="35" as="geometry">
            <mxRectangle width="32.166717529296875" height="35" as="alternateBounds" />
          </mxGeometry>
        </mxCell>
        <mxCell id="cRXDesgfxKI7EuMV64Of-123" value="manager_id serial" style="shape=partialRectangle;overflow=hidden;connectable=0;fillColor=none;top=0;left=0;bottom=0;right=0;align=left;spacingLeft=6;fontStyle=1;" parent="cRXDesgfxKI7EuMV64Of-121" vertex="1">
          <mxGeometry x="32.166717529296875" width="341.875" height="35" as="geometry">
            <mxRectangle width="341.875" height="35" as="alternateBounds" />
          </mxGeometry>
        </mxCell>
        <mxCell id="cRXDesgfxKI7EuMV64Of-124" value="" style="shape=partialRectangle;collapsible=0;dropTarget=0;pointerEvents=0;fillColor=none;points=[[0,0.5],[1,0.5]];portConstraint=eastwest;top=0;left=0;right=0;bottom=0;" parent="cRXDesgfxKI7EuMV64Of-120" vertex="1">
          <mxGeometry y="62" width="374.0417175292969" height="30" as="geometry" />
        </mxCell>
        <mxCell id="cRXDesgfxKI7EuMV64Of-125" value="" style="shape=partialRectangle;overflow=hidden;connectable=0;fillColor=light-dark(#dae8fc, #ededed);top=0;left=0;bottom=0;right=0;" parent="cRXDesgfxKI7EuMV64Of-124" vertex="1">
          <mxGeometry width="32.166717529296875" height="30" as="geometry">
            <mxRectangle width="32.166717529296875" height="30" as="alternateBounds" />
          </mxGeometry>
        </mxCell>
        <mxCell id="cRXDesgfxKI7EuMV64Of-126" value="role character varying (25) NOT NULL" style="shape=partialRectangle;overflow=hidden;connectable=0;fillColor=light-dark(#dae8fc, #ededed);top=0;left=0;bottom=0;right=0;align=left;spacingLeft=6;fontSize=14;" parent="cRXDesgfxKI7EuMV64Of-124" vertex="1">
          <mxGeometry x="32.166717529296875" width="341.875" height="30" as="geometry">
            <mxRectangle width="341.875" height="30" as="alternateBounds" />
          </mxGeometry>
        </mxCell>
        <mxCell id="cRXDesgfxKI7EuMV64Of-208" value="" style="shape=partialRectangle;collapsible=0;dropTarget=0;pointerEvents=0;fillColor=none;points=[[0,0.5],[1,0.5]];portConstraint=eastwest;top=0;left=0;right=0;bottom=0;" parent="cRXDesgfxKI7EuMV64Of-120" vertex="1">
          <mxGeometry y="92" width="374.0417175292969" height="30" as="geometry" />
        </mxCell>
        <mxCell id="cRXDesgfxKI7EuMV64Of-209" value="" style="shape=partialRectangle;overflow=hidden;connectable=0;fillColor=light-dark(#dae8fc, #ededed);top=0;left=0;bottom=0;right=0;" parent="cRXDesgfxKI7EuMV64Of-208" vertex="1">
          <mxGeometry width="32.166717529296875" height="30" as="geometry">
            <mxRectangle width="32.166717529296875" height="30" as="alternateBounds" />
          </mxGeometry>
        </mxCell>
        <mxCell id="cRXDesgfxKI7EuMV64Of-210" value="manager_name character varying (255) NOT NULL" style="shape=partialRectangle;overflow=hidden;connectable=0;fillColor=light-dark(#dae8fc, #ededed);top=0;left=0;bottom=0;right=0;align=left;spacingLeft=6;fontSize=14;" parent="cRXDesgfxKI7EuMV64Of-208" vertex="1">
          <mxGeometry x="32.166717529296875" width="341.875" height="30" as="geometry">
            <mxRectangle width="341.875" height="30" as="alternateBounds" />
          </mxGeometry>
        </mxCell>
        <mxCell id="cRXDesgfxKI7EuMV64Of-127" value="" style="shape=partialRectangle;collapsible=0;dropTarget=0;pointerEvents=0;fillColor=none;points=[[0,0.5],[1,0.5]];portConstraint=eastwest;top=0;left=0;right=0;bottom=0;" parent="cRXDesgfxKI7EuMV64Of-120" vertex="1">
          <mxGeometry y="122" width="374.0417175292969" height="38" as="geometry" />
        </mxCell>
        <mxCell id="cRXDesgfxKI7EuMV64Of-128" value="" style="shape=partialRectangle;overflow=hidden;connectable=0;fillColor=light-dark(#dae8fc, #ededed);top=0;left=0;bottom=0;right=0;" parent="cRXDesgfxKI7EuMV64Of-127" vertex="1">
          <mxGeometry width="32.166717529296875" height="38" as="geometry">
            <mxRectangle width="32.166717529296875" height="38" as="alternateBounds" />
          </mxGeometry>
        </mxCell>
        <mxCell id="cRXDesgfxKI7EuMV64Of-129" value="manager_email character_varying(255) NOT NULL" style="shape=partialRectangle;overflow=hidden;connectable=0;fillColor=light-dark(#dae8fc, #ededed);top=0;left=0;bottom=0;right=0;align=left;spacingLeft=6;fontSize=14;" parent="cRXDesgfxKI7EuMV64Of-127" vertex="1">
          <mxGeometry x="32.166717529296875" width="341.875" height="38" as="geometry">
            <mxRectangle width="341.875" height="38" as="alternateBounds" />
          </mxGeometry>
        </mxCell>
        <mxCell id="cRXDesgfxKI7EuMV64Of-162" value="" style="shape=partialRectangle;collapsible=0;dropTarget=0;pointerEvents=0;fillColor=none;points=[[0,0.5],[1,0.5]];portConstraint=eastwest;top=0;left=0;right=0;bottom=0;" parent="cRXDesgfxKI7EuMV64Of-120" vertex="1">
          <mxGeometry y="160" width="374.0417175292969" height="31" as="geometry" />
        </mxCell>
        <mxCell id="cRXDesgfxKI7EuMV64Of-163" value="FK" style="shape=partialRectangle;overflow=hidden;connectable=0;fillColor=light-dark(#dae8fc, #ededed);top=0;left=0;bottom=0;right=0;" parent="cRXDesgfxKI7EuMV64Of-162" vertex="1">
          <mxGeometry width="32.166717529296875" height="31" as="geometry">
            <mxRectangle width="32.166717529296875" height="31" as="alternateBounds" />
          </mxGeometry>
        </mxCell>
        <mxCell id="cRXDesgfxKI7EuMV64Of-164" value="property_number integer(20) NOT NULL" style="shape=partialRectangle;overflow=hidden;connectable=0;fillColor=light-dark(#dae8fc, #ededed);top=0;left=0;bottom=0;right=0;align=left;spacingLeft=6;fontSize=14;" parent="cRXDesgfxKI7EuMV64Of-162" vertex="1">
          <mxGeometry x="32.166717529296875" width="341.875" height="31" as="geometry">
            <mxRectangle width="341.875" height="31" as="alternateBounds" />
          </mxGeometry>
        </mxCell>
        <mxCell id="cRXDesgfxKI7EuMV64Of-165" value="" style="shape=partialRectangle;collapsible=0;dropTarget=0;pointerEvents=0;fillColor=none;points=[[0,0.5],[1,0.5]];portConstraint=eastwest;top=0;left=0;right=0;bottom=0;" parent="cRXDesgfxKI7EuMV64Of-120" vertex="1">
          <mxGeometry y="191" width="374.0417175292969" height="40" as="geometry" />
        </mxCell>
        <mxCell id="cRXDesgfxKI7EuMV64Of-166" value="" style="shape=partialRectangle;overflow=hidden;connectable=0;fillColor=light-dark(#dae8fc, #ededed);top=0;left=0;bottom=0;right=0;" parent="cRXDesgfxKI7EuMV64Of-165" vertex="1">
          <mxGeometry width="32.166717529296875" height="40" as="geometry">
            <mxRectangle width="32.166717529296875" height="40" as="alternateBounds" />
          </mxGeometry>
        </mxCell>
        <mxCell id="cRXDesgfxKI7EuMV64Of-167" value="joined_at timestamp without time zone " style="shape=partialRectangle;overflow=hidden;connectable=0;fillColor=light-dark(#dae8fc, #ededed);top=0;left=0;bottom=0;right=0;align=left;spacingLeft=6;fontSize=14;" parent="cRXDesgfxKI7EuMV64Of-165" vertex="1">
          <mxGeometry x="32.166717529296875" width="341.875" height="40" as="geometry">
            <mxRectangle width="341.875" height="40" as="alternateBounds" />
          </mxGeometry>
        </mxCell>
        <mxCell id="cRXDesgfxKI7EuMV64Of-133" value="Owner" style="shape=table;startSize=30;container=1;collapsible=1;childLayout=tableLayout;fixedRows=1;rowLines=0;fontStyle=1;align=center;resizeLast=1;movable=1;resizable=1;rotatable=1;deletable=1;editable=1;locked=0;connectable=1;fontSize=16;fillColor=light-dark(#fff4cc, #ededed);" parent="1" vertex="1">
          <mxGeometry x="1237" y="709" width="395.70843505859307" height="220" as="geometry" />
        </mxCell>
        <mxCell id="cRXDesgfxKI7EuMV64Of-134" value="" style="shape=partialRectangle;collapsible=0;dropTarget=0;pointerEvents=0;fillColor=none;points=[[0,0.5],[1,0.5]];portConstraint=eastwest;top=0;left=0;right=0;bottom=1;" parent="cRXDesgfxKI7EuMV64Of-133" vertex="1">
          <mxGeometry y="30" width="395.70843505859307" height="30" as="geometry" />
        </mxCell>
        <mxCell id="cRXDesgfxKI7EuMV64Of-135" value="PK" style="shape=partialRectangle;overflow=hidden;connectable=0;fillColor=none;top=0;left=0;bottom=0;right=0;fontStyle=1;" parent="cRXDesgfxKI7EuMV64Of-134" vertex="1">
          <mxGeometry width="37.40482003348211" height="30" as="geometry">
            <mxRectangle width="37.40482003348211" height="30" as="alternateBounds" />
          </mxGeometry>
        </mxCell>
        <mxCell id="cRXDesgfxKI7EuMV64Of-136" value="owner_id serial" style="shape=partialRectangle;overflow=hidden;connectable=0;fillColor=none;top=0;left=0;bottom=0;right=0;align=left;spacingLeft=6;fontStyle=1;fontSize=14;" parent="cRXDesgfxKI7EuMV64Of-134" vertex="1">
          <mxGeometry x="37.40482003348211" width="358.30361502511096" height="30" as="geometry">
            <mxRectangle width="358.30361502511096" height="30" as="alternateBounds" />
          </mxGeometry>
        </mxCell>
        <mxCell id="cRXDesgfxKI7EuMV64Of-137" value="" style="shape=partialRectangle;collapsible=0;dropTarget=0;pointerEvents=0;fillColor=none;points=[[0,0.5],[1,0.5]];portConstraint=eastwest;top=0;left=0;right=0;bottom=0;" parent="cRXDesgfxKI7EuMV64Of-133" vertex="1">
          <mxGeometry y="60" width="395.70843505859307" height="30" as="geometry" />
        </mxCell>
        <mxCell id="cRXDesgfxKI7EuMV64Of-138" value="" style="shape=partialRectangle;overflow=hidden;connectable=0;fillColor=light-dark(#d7e5f9, #ededed);top=0;left=0;bottom=0;right=0;" parent="cRXDesgfxKI7EuMV64Of-137" vertex="1">
          <mxGeometry width="37.40482003348211" height="30" as="geometry">
            <mxRectangle width="37.40482003348211" height="30" as="alternateBounds" />
          </mxGeometry>
        </mxCell>
        <mxCell id="cRXDesgfxKI7EuMV64Of-139" value="role character varying (25) NOT NULL" style="shape=partialRectangle;overflow=hidden;connectable=0;fillColor=light-dark(#dae8fc, #ededed);top=0;left=0;bottom=0;right=0;align=left;spacingLeft=6;fontSize=14;" parent="cRXDesgfxKI7EuMV64Of-137" vertex="1">
          <mxGeometry x="37.40482003348211" width="358.30361502511096" height="30" as="geometry">
            <mxRectangle width="358.30361502511096" height="30" as="alternateBounds" />
          </mxGeometry>
        </mxCell>
        <mxCell id="cRXDesgfxKI7EuMV64Of-211" value="" style="shape=partialRectangle;collapsible=0;dropTarget=0;pointerEvents=0;fillColor=none;points=[[0,0.5],[1,0.5]];portConstraint=eastwest;top=0;left=0;right=0;bottom=0;" parent="cRXDesgfxKI7EuMV64Of-133" vertex="1">
          <mxGeometry y="90" width="395.70843505859307" height="30" as="geometry" />
        </mxCell>
        <mxCell id="cRXDesgfxKI7EuMV64Of-212" value="" style="shape=partialRectangle;overflow=hidden;connectable=0;fillColor=light-dark(#d7e5f9, #ededed);top=0;left=0;bottom=0;right=0;" parent="cRXDesgfxKI7EuMV64Of-211" vertex="1">
          <mxGeometry width="37.40482003348211" height="30" as="geometry">
            <mxRectangle width="37.40482003348211" height="30" as="alternateBounds" />
          </mxGeometry>
        </mxCell>
        <mxCell id="cRXDesgfxKI7EuMV64Of-213" value="owner_name  character varying(50) NOT NULL" style="shape=partialRectangle;overflow=hidden;connectable=0;fillColor=light-dark(#dae8fc, #ededed);top=0;left=0;bottom=0;right=0;align=left;spacingLeft=6;fontSize=14;" parent="cRXDesgfxKI7EuMV64Of-211" vertex="1">
          <mxGeometry x="37.40482003348211" width="358.30361502511096" height="30" as="geometry">
            <mxRectangle width="358.30361502511096" height="30" as="alternateBounds" />
          </mxGeometry>
        </mxCell>
        <mxCell id="cRXDesgfxKI7EuMV64Of-140" value="" style="shape=partialRectangle;collapsible=0;dropTarget=0;pointerEvents=0;fillColor=none;points=[[0,0.5],[1,0.5]];portConstraint=eastwest;top=0;left=0;right=0;bottom=0;" parent="cRXDesgfxKI7EuMV64Of-133" vertex="1">
          <mxGeometry y="120" width="395.70843505859307" height="30" as="geometry" />
        </mxCell>
        <mxCell id="cRXDesgfxKI7EuMV64Of-141" value="" style="shape=partialRectangle;overflow=hidden;connectable=0;fillColor=light-dark(#d7e5f9, #ededed);top=0;left=0;bottom=0;right=0;" parent="cRXDesgfxKI7EuMV64Of-140" vertex="1">
          <mxGeometry width="37.40482003348211" height="30" as="geometry">
            <mxRectangle width="37.40482003348211" height="30" as="alternateBounds" />
          </mxGeometry>
        </mxCell>
        <mxCell id="cRXDesgfxKI7EuMV64Of-142" value="owner_email character( varying 50) NOT NULL" style="shape=partialRectangle;overflow=hidden;connectable=0;fillColor=light-dark(#dae8fc, #ededed);top=0;left=0;bottom=0;right=0;align=left;spacingLeft=6;fontSize=14;" parent="cRXDesgfxKI7EuMV64Of-140" vertex="1">
          <mxGeometry x="37.40482003348211" width="358.30361502511096" height="30" as="geometry">
            <mxRectangle width="358.30361502511096" height="30" as="alternateBounds" />
          </mxGeometry>
        </mxCell>
        <mxCell id="cRXDesgfxKI7EuMV64Of-143" value="" style="shape=partialRectangle;collapsible=0;dropTarget=0;pointerEvents=0;fillColor=none;points=[[0,0.5],[1,0.5]];portConstraint=eastwest;top=0;left=0;right=0;bottom=0;" parent="cRXDesgfxKI7EuMV64Of-133" vertex="1">
          <mxGeometry y="150" width="395.70843505859307" height="30" as="geometry" />
        </mxCell>
        <mxCell id="cRXDesgfxKI7EuMV64Of-144" value="FK" style="shape=partialRectangle;overflow=hidden;connectable=0;fillColor=light-dark(#d7e5f9, #ededed);top=0;left=0;bottom=0;right=0;" parent="cRXDesgfxKI7EuMV64Of-143" vertex="1">
          <mxGeometry width="37.40482003348211" height="30" as="geometry">
            <mxRectangle width="37.40482003348211" height="30" as="alternateBounds" />
          </mxGeometry>
        </mxCell>
        <mxCell id="cRXDesgfxKI7EuMV64Of-145" value="property_number integer(20) NOT NULL" style="shape=partialRectangle;overflow=hidden;connectable=0;fillColor=light-dark(#dae8fc, #ededed);top=0;left=0;bottom=0;right=0;align=left;spacingLeft=6;fontSize=14;" parent="cRXDesgfxKI7EuMV64Of-143" vertex="1">
          <mxGeometry x="37.40482003348211" width="358.30361502511096" height="30" as="geometry">
            <mxRectangle width="358.30361502511096" height="30" as="alternateBounds" />
          </mxGeometry>
        </mxCell>
        <mxCell id="cRXDesgfxKI7EuMV64Of-146" value="" style="shape=partialRectangle;collapsible=0;dropTarget=0;pointerEvents=0;fillColor=none;points=[[0,0.5],[1,0.5]];portConstraint=eastwest;top=0;left=0;right=0;bottom=0;" parent="cRXDesgfxKI7EuMV64Of-133" vertex="1">
          <mxGeometry y="180" width="395.70843505859307" height="30" as="geometry" />
        </mxCell>
        <mxCell id="cRXDesgfxKI7EuMV64Of-147" value="" style="shape=partialRectangle;overflow=hidden;connectable=0;fillColor=light-dark(#d7e5f9, #ededed);top=0;left=0;bottom=0;right=0;" parent="cRXDesgfxKI7EuMV64Of-146" vertex="1">
          <mxGeometry width="37.40482003348211" height="30" as="geometry">
            <mxRectangle width="37.40482003348211" height="30" as="alternateBounds" />
          </mxGeometry>
        </mxCell>
        <mxCell id="cRXDesgfxKI7EuMV64Of-148" value="joined_at timestamp without time zone" style="shape=partialRectangle;overflow=hidden;connectable=0;fillColor=light-dark(#dae8fc, #ededed);top=0;left=0;bottom=0;right=0;align=left;spacingLeft=6;fontSize=14;" parent="cRXDesgfxKI7EuMV64Of-146" vertex="1">
          <mxGeometry x="37.40482003348211" width="358.30361502511096" height="30" as="geometry">
            <mxRectangle width="358.30361502511096" height="30" as="alternateBounds" />
          </mxGeometry>
        </mxCell>
        <mxCell id="cRXDesgfxKI7EuMV64Of-169" style="edgeStyle=orthogonalEdgeStyle;rounded=0;orthogonalLoop=1;jettySize=auto;html=1;exitX=0;exitY=0.5;exitDx=0;exitDy=0;entryX=0;entryY=0.5;entryDx=0;entryDy=0;startArrow=ERmandOne;startFill=0;endArrow=ERzeroToMany;endFill=0;strokeWidth=3;endSize=9;startSize=9;" parent="1" source="cRXDesgfxKI7EuMV64Of-77" target="cRXDesgfxKI7EuMV64Of-64" edge="1">
          <mxGeometry relative="1" as="geometry" />
        </mxCell>
        <mxCell id="cRXDesgfxKI7EuMV64Of-175" style="edgeStyle=orthogonalEdgeStyle;rounded=0;orthogonalLoop=1;jettySize=auto;html=1;exitX=1;exitY=0.5;exitDx=0;exitDy=0;entryX=0;entryY=0.5;entryDx=0;entryDy=0;startArrow=ERmany;startFill=0;strokeWidth=3;endSize=9;startSize=9;endArrow=ERmandOne;endFill=0;" parent="1" source="cRXDesgfxKI7EuMV64Of-2" target="cRXDesgfxKI7EuMV64Of-143" edge="1">
          <mxGeometry relative="1" as="geometry" />
        </mxCell>
        <mxCell id="cRXDesgfxKI7EuMV64Of-176" style="edgeStyle=orthogonalEdgeStyle;rounded=0;orthogonalLoop=1;jettySize=auto;html=1;exitX=0;exitY=0.5;exitDx=0;exitDy=0;entryX=1;entryY=0.5;entryDx=0;entryDy=0;endSize=9;startSize=9;strokeWidth=3;endArrow=ERzeroToMany;endFill=0;startArrow=ERmandOne;startFill=0;" parent="1" source="cRXDesgfxKI7EuMV64Of-2" target="cRXDesgfxKI7EuMV64Of-52" edge="1">
          <mxGeometry relative="1" as="geometry" />
        </mxCell>
        <mxCell id="cRXDesgfxKI7EuMV64Of-178" style="edgeStyle=orthogonalEdgeStyle;rounded=0;orthogonalLoop=1;jettySize=auto;html=1;entryX=0.706;entryY=0.002;entryDx=0;entryDy=0;entryPerimeter=0;startArrow=ERmandOne;startFill=0;endArrow=ERmandOne;endFill=0;strokeWidth=3;endSize=9;startSize=9;" parent="1" source="cRXDesgfxKI7EuMV64Of-95" target="cRXDesgfxKI7EuMV64Of-1" edge="1">
          <mxGeometry relative="1" as="geometry" />
        </mxCell>
        <mxCell id="cRXDesgfxKI7EuMV64Of-181" style="edgeStyle=orthogonalEdgeStyle;rounded=0;orthogonalLoop=1;jettySize=auto;html=1;exitX=1;exitY=0.5;exitDx=0;exitDy=0;entryX=0.066;entryY=0.002;entryDx=0;entryDy=0;entryPerimeter=0;startArrow=ERmandOne;startFill=0;endArrow=ERmandOne;endFill=0;strokeWidth=3;endSize=9;startSize=9;" parent="1" source="cRXDesgfxKI7EuMV64Of-39" target="cRXDesgfxKI7EuMV64Of-1" edge="1">
          <mxGeometry relative="1" as="geometry" />
        </mxCell>
        <mxCell id="cRXDesgfxKI7EuMV64Of-184" value="&lt;font style=&quot;font-size: 14px;&quot;&gt;&lt;b&gt;&lt;u style=&quot;background-color: light-dark(#ffffff, var(--ge-dark-color, #121212));&quot;&gt;Discovery Park Apartments ERD&lt;/u&gt;&lt;/b&gt;&lt;/font&gt;" style="text;html=1;align=center;verticalAlign=middle;resizable=0;points=[];autosize=1;strokeColor=#666666;fillColor=#f5f5f5;fontColor=#333333;" parent="1" vertex="1">
          <mxGeometry x="27" y="57" width="234" height="29" as="geometry" />
        </mxCell>
        <mxCell id="cRXDesgfxKI7EuMV64Of-185" value="Payment" style="shape=table;startSize=25;container=1;collapsible=1;childLayout=tableLayout;fixedRows=1;rowLines=0;fontStyle=1;align=center;resizeLast=1;fontSize=15;fillColor=light-dark(#fff4cc, #ededed);" parent="1" vertex="1">
          <mxGeometry x="84" y="387" width="366.361094156901" height="244.277811686198" as="geometry" />
        </mxCell>
        <mxCell id="cRXDesgfxKI7EuMV64Of-186" value="" style="shape=partialRectangle;collapsible=0;dropTarget=0;pointerEvents=0;fillColor=default;points=[[0,0.5],[1,0.5]];portConstraint=eastwest;top=0;left=0;right=0;bottom=1;" parent="cRXDesgfxKI7EuMV64Of-185" vertex="1">
          <mxGeometry y="25" width="366.361094156901" height="30" as="geometry" />
        </mxCell>
        <mxCell id="cRXDesgfxKI7EuMV64Of-187" value="PK" style="shape=partialRectangle;overflow=hidden;connectable=0;fillColor=default;top=0;left=0;bottom=0;right=0;fontStyle=1;" parent="cRXDesgfxKI7EuMV64Of-186" vertex="1">
          <mxGeometry width="30.24997456868489" height="30" as="geometry">
            <mxRectangle width="30.24997456868489" height="30" as="alternateBounds" />
          </mxGeometry>
        </mxCell>
        <mxCell id="cRXDesgfxKI7EuMV64Of-188" value="payment_id    serial" style="shape=partialRectangle;overflow=hidden;connectable=0;fillColor=default;top=0;left=0;bottom=0;right=0;align=left;spacingLeft=6;fontStyle=1;fontSize=14;" parent="cRXDesgfxKI7EuMV64Of-186" vertex="1">
          <mxGeometry x="30.24997456868489" width="336.1111195882161" height="30" as="geometry">
            <mxRectangle width="336.1111195882161" height="30" as="alternateBounds" />
          </mxGeometry>
        </mxCell>
        <mxCell id="cRXDesgfxKI7EuMV64Of-189" value="" style="shape=partialRectangle;collapsible=0;dropTarget=0;pointerEvents=0;fillColor=default;points=[[0,0.5],[1,0.5]];portConstraint=eastwest;top=0;left=0;right=0;bottom=0;" parent="cRXDesgfxKI7EuMV64Of-185" vertex="1">
          <mxGeometry y="55" width="366.361094156901" height="30" as="geometry" />
        </mxCell>
        <mxCell id="cRXDesgfxKI7EuMV64Of-190" value="FK" style="shape=partialRectangle;overflow=hidden;connectable=0;fillColor=light-dark(#dae8fc, #ededed);top=0;left=0;bottom=0;right=0;" parent="cRXDesgfxKI7EuMV64Of-189" vertex="1">
          <mxGeometry width="30.24997456868489" height="30" as="geometry">
            <mxRectangle width="30.24997456868489" height="30" as="alternateBounds" />
          </mxGeometry>
        </mxCell>
        <mxCell id="cRXDesgfxKI7EuMV64Of-191" value="property_number integer(20) NOT NULL" style="shape=partialRectangle;overflow=hidden;connectable=0;fillColor=light-dark(#dae8fc, #ededed);top=0;left=0;bottom=0;right=0;align=left;spacingLeft=6;fontSize=14;" parent="cRXDesgfxKI7EuMV64Of-189" vertex="1">
          <mxGeometry x="30.24997456868489" width="336.1111195882161" height="30" as="geometry">
            <mxRectangle width="336.1111195882161" height="30" as="alternateBounds" />
          </mxGeometry>
        </mxCell>
        <mxCell id="cRXDesgfxKI7EuMV64Of-192" value="" style="shape=partialRectangle;collapsible=0;dropTarget=0;pointerEvents=0;fillColor=default;points=[[0,0.5],[1,0.5]];portConstraint=eastwest;top=0;left=0;right=0;bottom=0;" parent="cRXDesgfxKI7EuMV64Of-185" vertex="1">
          <mxGeometry y="85" width="366.361094156901" height="30" as="geometry" />
        </mxCell>
        <mxCell id="cRXDesgfxKI7EuMV64Of-193" value="" style="shape=partialRectangle;overflow=hidden;connectable=0;fillColor=light-dark(#dae8fc, #ededed);top=0;left=0;bottom=0;right=0;" parent="cRXDesgfxKI7EuMV64Of-192" vertex="1">
          <mxGeometry width="30.24997456868489" height="30" as="geometry">
            <mxRectangle width="30.24997456868489" height="30" as="alternateBounds" />
          </mxGeometry>
        </mxCell>
        <mxCell id="cRXDesgfxKI7EuMV64Of-194" value="payment_date timestamp without time zone" style="shape=partialRectangle;overflow=hidden;connectable=0;fillColor=light-dark(#dae8fc, #ededed);top=0;left=0;bottom=0;right=0;align=left;spacingLeft=6;fontSize=14;" parent="cRXDesgfxKI7EuMV64Of-192" vertex="1">
          <mxGeometry x="30.24997456868489" width="336.1111195882161" height="30" as="geometry">
            <mxRectangle width="336.1111195882161" height="30" as="alternateBounds" />
          </mxGeometry>
        </mxCell>
        <mxCell id="cRXDesgfxKI7EuMV64Of-195" value="" style="shape=partialRectangle;collapsible=0;dropTarget=0;pointerEvents=0;fillColor=default;points=[[0,0.5],[1,0.5]];portConstraint=eastwest;top=0;left=0;right=0;bottom=0;" parent="cRXDesgfxKI7EuMV64Of-185" vertex="1">
          <mxGeometry y="115" width="366.361094156901" height="30" as="geometry" />
        </mxCell>
        <mxCell id="cRXDesgfxKI7EuMV64Of-196" value="" style="shape=partialRectangle;overflow=hidden;connectable=0;fillColor=light-dark(#dae8fc, #ededed);top=0;left=0;bottom=0;right=0;" parent="cRXDesgfxKI7EuMV64Of-195" vertex="1">
          <mxGeometry width="30.24997456868489" height="30" as="geometry">
            <mxRectangle width="30.24997456868489" height="30" as="alternateBounds" />
          </mxGeometry>
        </mxCell>
        <mxCell id="cRXDesgfxKI7EuMV64Of-197" value="payment_method character varying(100) NOT NULL" style="shape=partialRectangle;overflow=hidden;connectable=0;fillColor=light-dark(#dae8fc, #ededed);top=0;left=0;bottom=0;right=0;align=left;spacingLeft=6;fontSize=14;" parent="cRXDesgfxKI7EuMV64Of-195" vertex="1">
          <mxGeometry x="30.24997456868489" width="336.1111195882161" height="30" as="geometry">
            <mxRectangle width="336.1111195882161" height="30" as="alternateBounds" />
          </mxGeometry>
        </mxCell>
        <mxCell id="cRXDesgfxKI7EuMV64Of-198" value="" style="shape=partialRectangle;collapsible=0;dropTarget=0;pointerEvents=0;fillColor=default;points=[[0,0.5],[1,0.5]];portConstraint=eastwest;top=0;left=0;right=0;bottom=0;" parent="cRXDesgfxKI7EuMV64Of-185" vertex="1">
          <mxGeometry y="145" width="366.361094156901" height="30" as="geometry" />
        </mxCell>
        <mxCell id="cRXDesgfxKI7EuMV64Of-199" value="" style="shape=partialRectangle;overflow=hidden;connectable=0;fillColor=light-dark(#dae8fc, #ededed);top=0;left=0;bottom=0;right=0;" parent="cRXDesgfxKI7EuMV64Of-198" vertex="1">
          <mxGeometry width="30.24997456868489" height="30" as="geometry">
            <mxRectangle width="30.24997456868489" height="30" as="alternateBounds" />
          </mxGeometry>
        </mxCell>
        <mxCell id="cRXDesgfxKI7EuMV64Of-200" value="transaction_reference character varying(100) NOT NULL" style="shape=partialRectangle;overflow=hidden;connectable=0;fillColor=light-dark(#dae8fc, #ededed);top=0;left=0;bottom=0;right=0;align=left;spacingLeft=6;fontSize=14;" parent="cRXDesgfxKI7EuMV64Of-198" vertex="1">
          <mxGeometry x="30.24997456868489" width="336.1111195882161" height="30" as="geometry">
            <mxRectangle width="336.1111195882161" height="30" as="alternateBounds" />
          </mxGeometry>
        </mxCell>
        <mxCell id="cRXDesgfxKI7EuMV64Of-202" value="" style="shape=partialRectangle;collapsible=0;dropTarget=0;pointerEvents=0;fillColor=default;points=[[0,0.5],[1,0.5]];portConstraint=eastwest;top=0;left=0;right=0;bottom=0;" parent="cRXDesgfxKI7EuMV64Of-185" vertex="1">
          <mxGeometry y="175" width="366.361094156901" height="30" as="geometry" />
        </mxCell>
        <mxCell id="cRXDesgfxKI7EuMV64Of-203" value="" style="shape=partialRectangle;overflow=hidden;connectable=0;fillColor=light-dark(#dae8fc, #ededed);top=0;left=0;bottom=0;right=0;" parent="cRXDesgfxKI7EuMV64Of-202" vertex="1">
          <mxGeometry width="30.24997456868489" height="30" as="geometry">
            <mxRectangle width="30.24997456868489" height="30" as="alternateBounds" />
          </mxGeometry>
        </mxCell>
        <mxCell id="cRXDesgfxKI7EuMV64Of-204" value="payment_status character varying(100) NOT NULL" style="shape=partialRectangle;overflow=hidden;connectable=0;fillColor=light-dark(#dae8fc, #ededed);top=0;left=0;bottom=0;right=0;align=left;spacingLeft=6;fontSize=14;" parent="cRXDesgfxKI7EuMV64Of-202" vertex="1">
          <mxGeometry x="30.24997456868489" width="336.1111195882161" height="30" as="geometry">
            <mxRectangle width="336.1111195882161" height="30" as="alternateBounds" />
          </mxGeometry>
        </mxCell>
        <mxCell id="cRXDesgfxKI7EuMV64Of-205" value="" style="shape=partialRectangle;collapsible=0;dropTarget=0;pointerEvents=0;fillColor=default;points=[[0,0.5],[1,0.5]];portConstraint=eastwest;top=0;left=0;right=0;bottom=0;" parent="cRXDesgfxKI7EuMV64Of-185" vertex="1">
          <mxGeometry y="205" width="366.361094156901" height="24" as="geometry" />
        </mxCell>
        <mxCell id="cRXDesgfxKI7EuMV64Of-206" value="" style="shape=partialRectangle;overflow=hidden;connectable=0;fillColor=light-dark(#dae8fc, #ededed);top=0;left=0;bottom=0;right=0;" parent="cRXDesgfxKI7EuMV64Of-205" vertex="1">
          <mxGeometry width="30.24997456868489" height="24" as="geometry">
            <mxRectangle width="30.24997456868489" height="24" as="alternateBounds" />
          </mxGeometry>
        </mxCell>
        <mxCell id="cRXDesgfxKI7EuMV64Of-207" value="jlastupdated_at timestamp without timezone" style="shape=partialRectangle;overflow=hidden;connectable=0;fillColor=light-dark(#dae8fc, #ededed);top=0;left=0;bottom=0;right=0;align=left;spacingLeft=6;fontSize=14;" parent="cRXDesgfxKI7EuMV64Of-205" vertex="1">
          <mxGeometry x="30.24997456868489" width="336.1111195882161" height="24" as="geometry">
            <mxRectangle width="336.1111195882161" height="24" as="alternateBounds" />
          </mxGeometry>
        </mxCell>
        <mxCell id="cRXDesgfxKI7EuMV64Of-201" style="edgeStyle=orthogonalEdgeStyle;rounded=0;orthogonalLoop=1;jettySize=auto;html=1;entryX=0.011;entryY=0.047;entryDx=0;entryDy=0;entryPerimeter=0;strokeWidth=3;endSize=9;startSize=9;startArrow=ERmandOne;startFill=0;endArrow=ERmandOne;endFill=0;exitX=1;exitY=0.25;exitDx=0;exitDy=0;" parent="1" source="cRXDesgfxKI7EuMV64Of-185" target="cRXDesgfxKI7EuMV64Of-1" edge="1">
          <mxGeometry relative="1" as="geometry" />
        </mxCell>
        <mxCell id="cRXDesgfxKI7EuMV64Of-235" style="edgeStyle=orthogonalEdgeStyle;rounded=0;orthogonalLoop=1;jettySize=auto;html=1;entryX=1;entryY=0.5;entryDx=0;entryDy=0;strokeWidth=3;endSize=9;startSize=9;endArrow=ERone;endFill=0;startArrow=ERone;startFill=0;" parent="1" source="cRXDesgfxKI7EuMV64Of-217" target="cRXDesgfxKI7EuMV64Of-99" edge="1">
          <mxGeometry relative="1" as="geometry" />
        </mxCell>
        <mxCell id="cRXDesgfxKI7EuMV64Of-236" style="edgeStyle=orthogonalEdgeStyle;rounded=0;orthogonalLoop=1;jettySize=auto;html=1;exitX=1;exitY=0.25;exitDx=0;exitDy=0;entryX=1;entryY=0.5;entryDx=0;entryDy=0;strokeWidth=3;endSize=8;startSize=8;startArrow=ERone;startFill=0;endArrow=ERone;endFill=0;" parent="1" source="cRXDesgfxKI7EuMV64Of-217" target="cRXDesgfxKI7EuMV64Of-124" edge="1">
          <mxGeometry relative="1" as="geometry" />
        </mxCell>
        <mxCell id="cRXDesgfxKI7EuMV64Of-217" value="Login" style="shape=table;startSize=26;container=1;collapsible=1;childLayout=tableLayout;fixedRows=1;rowLines=0;fontStyle=1;align=center;resizeLast=1;fontSize=15;fillColor=light-dark(#fff4cc, #ededed);" parent="1" vertex="1">
          <mxGeometry x="1528" y="63" width="301.76193382626485" height="98" as="geometry" />
        </mxCell>
        <mxCell id="cRXDesgfxKI7EuMV64Of-218" value="" style="shape=partialRectangle;collapsible=0;dropTarget=0;pointerEvents=0;fillColor=default;points=[[0,0.5],[1,0.5]];portConstraint=eastwest;top=0;left=0;right=0;bottom=1;" parent="cRXDesgfxKI7EuMV64Of-217" vertex="1">
          <mxGeometry y="26" width="301.76193382626485" height="20" as="geometry" />
        </mxCell>
        <mxCell id="cRXDesgfxKI7EuMV64Of-219" value="PK    " style="shape=partialRectangle;overflow=hidden;connectable=0;fillColor=default;top=0;left=0;bottom=0;right=0;fontStyle=1;" parent="cRXDesgfxKI7EuMV64Of-218" vertex="1">
          <mxGeometry width="38.33333333333303" height="20" as="geometry">
            <mxRectangle width="38.33333333333303" height="20" as="alternateBounds" />
          </mxGeometry>
        </mxCell>
        <mxCell id="cRXDesgfxKI7EuMV64Of-220" value="role character varying(25) NOT NULL" style="shape=partialRectangle;overflow=hidden;connectable=0;fillColor=default;top=0;left=0;bottom=0;right=0;align=left;spacingLeft=6;fontStyle=1;fontSize=14;" parent="cRXDesgfxKI7EuMV64Of-218" vertex="1">
          <mxGeometry x="38.33333333333303" width="263.4286004929318" height="20" as="geometry">
            <mxRectangle width="263.4286004929318" height="20" as="alternateBounds" />
          </mxGeometry>
        </mxCell>
        <mxCell id="cRXDesgfxKI7EuMV64Of-221" value="" style="shape=partialRectangle;collapsible=0;dropTarget=0;pointerEvents=0;fillColor=default;points=[[0,0.5],[1,0.5]];portConstraint=eastwest;top=0;left=0;right=0;bottom=0;" parent="cRXDesgfxKI7EuMV64Of-217" vertex="1">
          <mxGeometry y="46" width="301.76193382626485" height="20" as="geometry" />
        </mxCell>
        <mxCell id="cRXDesgfxKI7EuMV64Of-222" value="" style="shape=partialRectangle;overflow=hidden;connectable=0;fillColor=light-dark(#dae8fc, #ededed);top=0;left=0;bottom=0;right=0;" parent="cRXDesgfxKI7EuMV64Of-221" vertex="1">
          <mxGeometry width="38.33333333333303" height="20" as="geometry">
            <mxRectangle width="38.33333333333303" height="20" as="alternateBounds" />
          </mxGeometry>
        </mxCell>
        <mxCell id="cRXDesgfxKI7EuMV64Of-223" value="" style="shape=partialRectangle;overflow=hidden;connectable=0;fillColor=light-dark(#dae8fc, #ededed);top=0;left=0;bottom=0;right=0;align=left;spacingLeft=6;fontSize=14;" parent="cRXDesgfxKI7EuMV64Of-221" vertex="1">
          <mxGeometry x="38.33333333333303" width="263.4286004929318" height="20" as="geometry">
            <mxRectangle width="263.4286004929318" height="20" as="alternateBounds" />
          </mxGeometry>
        </mxCell>
        <mxCell id="cRXDesgfxKI7EuMV64Of-239" style="edgeStyle=orthogonalEdgeStyle;rounded=0;orthogonalLoop=1;jettySize=auto;html=1;exitX=1;exitY=0.5;exitDx=0;exitDy=0;endArrow=ERone;startFill=0;startArrow=ERone;endSize=8;startSize=8;strokeWidth=3;endFill=0;" parent="1" source="cRXDesgfxKI7EuMV64Of-137" edge="1">
          <mxGeometry relative="1" as="geometry">
            <mxPoint x="1790.6666666666665" y="165.48145887586793" as="targetPoint" />
          </mxGeometry>
        </mxCell>
      </root>
    </mxGraphModel>
  </diagram>
</mxfile>
